<?xml version="1.0" standalone="no"?>
<!DOCTYPE svg PUBLIC "-//W3C//DTD SVG 20010904//EN"
 "http://www.w3.org/TR/2001/REC-SVG-20010904/DTD/svg10.dtd">
<svg version="1.0" xmlns="http://www.w3.org/2000/svg"
 width="300.000000pt" height="225.000000pt" viewBox="0 0 300.000000 225.000000"
 preserveAspectRatio="xMidYMid meet">

<g transform="translate(0.000000,225.000000) scale(0.100000,-0.100000)"
fill="#000000" stroke="none">
<path d="M0 1125 l0 -1125 1500 0 1500 0 0 1125 0 1125 -682 -1 -683 0 475
-238 475 -238 -332 -167 c-183 -91 -335 -166 -338 -166 -3 0 -5 72 -5 160 0
88 -2 160 -5 160 -3 0 -95 -45 -205 -100 l-200 -100 -140 70 -140 70 0 -168 0
-167 137 -69 138 -68 -68 -34 -67 -34 -70 35 -70 35 0 -85 0 -85 -130 65 c-71
36 -132 65 -135 65 -3 0 -5 -36 -5 -80 l0 -80 -135 67 -135 68 0 82 0 83 -70
35 -70 35 0 85 0 85 -65 33 -66 33 69 33 68 33 132 -66 c72 -36 134 -66 137
-66 3 0 5 36 5 80 l0 80 65 -32 65 -32 0 -83 0 -83 70 35 70 35 0 98 0 97 135
68 135 67 0 71 0 70 -203 -104 -204 -104 -136 69 -137 68 0 -85 0 -85 -70 35
-70 35 0 83 0 82 207 104 208 103 167 -83 168 -84 173 87 172 87 -817 0 -818
1 0 -1125z m2800 176 l195 -99 -273 -136 -272 -136 0 -165 c0 -91 -2 -165 -5
-165 -3 0 -32 14 -65 30 l-60 30 0 85 0 85 -70 35 -70 35 0 83 0 82 205 103
205 102 0 65 c0 36 3 65 8 64 4 0 95 -44 202 -98z m-2324 -34 l64 -31 0 -168
0 -168 70 -35 70 -35 0 85 0 85 70 -35 70 -35 0 -165 c0 -91 -2 -165 -5 -165
-3 0 -66 30 -140 67 l-135 68 0 82 0 83 -60 30 c-33 16 -62 30 -65 30 -3 0 -5
-20 -5 -45 0 -25 -2 -45 -5 -45 -2 0 -34 14 -70 32 l-65 32 0 168 0 168 68 34
c63 32 67 33 70 15 2 -13 26 -31 68 -52z m819 -409 l65 -32 0 -168 0 -168 -70
35 -70 35 0 165 c0 91 2 165 5 165 2 0 34 -14 70 -32z m655 -17 l95 -49 -208
-103 -207 -104 0 -162 c0 -90 -2 -163 -5 -163 -3 0 -32 14 -65 30 l-60 30 0
169 0 169 -30 12 c-16 7 -30 15 -30 19 0 9 382 200 400 200 8 0 58 -22 110
-48z m-925 -13 l65 -32 0 -86 0 -86 65 -32 65 -32 0 -80 c0 -44 -2 -80 -5 -80
-3 0 -64 29 -135 65 l-130 65 0 165 c0 91 2 165 5 165 2 0 34 -14 70 -32z
m-413 -229 l203 -101 -70 -35 -69 -35 -68 33 -68 33 -68 -33 -68 -33 -67 34
-67 33 67 34 68 33 -62 31 c-35 17 -63 34 -63 37 0 4 114 66 128 69 1 1 93
-45 204 -100z m2318 -3 l64 -34 -67 -33 -67 -34 67 -34 68 -33 -67 -34 -68
-34 -137 69 -138 69 135 65 c74 36 137 66 140 66 3 0 34 -15 70 -33z m-211
-301 c1 -2 -28 -19 -65 -38 l-69 -35 -205 103 -205 102 70 36 70 35 200 -100
c110 -55 202 -102 204 -103z m-1421 -38 l203 -103 -70 -34 -71 -34 -70 34 -70
34 -68 -33 -68 -33 -67 34 -67 33 67 34 68 33 -62 31 c-35 17 -63 34 -63 37 0
5 119 69 130 69 3 0 96 -46 208 -102z"/>
</g>
</svg>
